# xmcd
#
# Track frame offsets:
#	150
#	24905
#	43977
#	58587
#	74612
#	104750
#	125425
#	137887
#	151117
#	168600
#	190292
#	205067
#	221892
#
# Disc length: 3252 seconds
#
# Revision: 4
# Processed by: cddbd v1.5.2PL0 Copyright (c) Steve Scherf et al.
# Submitted via: audiograbber 1.83.01
#
DISCID=ca0cb20d
DTITLE=Various / Women of the World: Celtic
DYEAR=1995
DGENRE=Misc
TTITLE0=Maire Brennan / Against the Wind
TTITLE1=Maighread Ni Dhomhnaill / Amhran Pheadar Breathnach
TTITLE2=Mary Black / Treasure Island
TTITLE3=Karen Matheson / Dark Alan
TTITLE4=Karen Matheson / Waiting for the Wheel to Turn
TTITLE5=Maire Brennan / The Mighty One
TTITLE6=Connie Dover / In Aimsir Bhaint an Fheir
TTITLE7=Maire Breatnach / Breatnaigh Abu
TTITLE8=Maura O'Connell / Stories
TTITLE9=Fiona Joyce / Cry Over You
TTITLE10=Nancy McCallion / On We Go
TTITLE11=Mairead Ni Mhaonaigh / Dulaman
TTITLE12=Mary Black / Song for Ireland
EXTD=
EXTT0=
EXTT1=
EXTT2=
EXTT3=
EXTT4=
EXTT5=
EXTT6=
EXTT7=
EXTT8=
EXTT9=
EXTT10=
EXTT11=
EXTT12=
PLAYORDER=
.
